<?xml version="1.0" standalone="no"?>
<!DOCTYPE svg PUBLIC "-//W3C//DTD SVG 20010904//EN"
 "http://www.w3.org/TR/2001/REC-SVG-20010904/DTD/svg10.dtd">
<svg version="1.0" xmlns="http://www.w3.org/2000/svg"
 width="1640.000000pt" height="624.000000pt" viewBox="0 0 1640.000000 624.000000"
 preserveAspectRatio="xMidYMid meet">

<g transform="translate(0.000000,624.000000) scale(0.100000,-0.100000)"
fill="#000000" stroke="none">
<path d="M0 3120 l0 -3120 8200 0 8200 0 0 3120 0 3120 -8200 0 -8200 0 0
-3120z m3471 2380 c226 -42 372 -249 373 -530 1 -247 -119 -440 -314 -506 -71
-24 -204 -24 -282 -1 -74 22 -171 96 -219 167 -84 122 -119 319 -84 476 61
284 272 441 526 394z m1185 -1 c77 -14 149 -50 202 -102 l42 -41 0 61 c0 72
16 93 55 75 l25 -12 0 -154 c0 -143 -2 -156 -19 -166 -32 -17 -49 -2 -70 62
-29 85 -77 140 -159 180 -61 30 -74 33 -157 32 -118 -1 -184 -25 -254 -96 -87
-87 -125 -197 -124 -358 1 -169 46 -285 147 -378 169 -154 452 -105 555 97 17
32 21 59 21 130 l0 90 -72 3 c-68 3 -73 5 -76 27 -2 13 2 28 10 32 17 11 289
11 306 0 8 -4 12 -19 10 -32 -3 -21 -9 -24 -50 -27 l-48 -3 -2 -231 c-3 -204
-5 -232 -20 -241 -13 -9 -22 -7 -37 7 -18 16 -21 31 -21 90 l0 71 -19 -31
c-60 -99 -239 -160 -393 -135 -187 30 -319 158 -374 362 -24 89 -24 274 0 354
37 125 98 211 191 270 100 64 213 86 331 64z m4865 1 c74 -14 171 -63 208
-106 l31 -35 0 55 c0 72 28 103 70 76 12 -7 16 -39 18 -158 3 -130 1 -151 -14
-166 -33 -34 -51 -18 -84 74 -86 238 -455 267 -616 49 -60 -82 -88 -175 -88
-299 0 -216 86 -371 250 -447 51 -24 72 -28 149 -28 78 0 98 4 150 28 77 36
144 107 175 186 26 65 48 79 81 52 19 -15 20 -21 10 -58 -15 -55 -76 -144
-126 -184 -177 -141 -457 -125 -618 37 -106 107 -158 256 -152 439 3 113 27
200 76 277 100 157 297 242 480 208z m-3702 -17 l21 -18 -16 -185 c-9 -102
-20 -189 -25 -194 -20 -22 -30 19 -45 199 -16 181 -16 189 2 202 24 17 38 16
63 -4z m4675 1 c12 -12 13 -20 6 -35 -9 -15 -22 -19 -71 -19 l-59 0 2 -202 3
-203 244 0 245 0 0 200 0 200 -58 5 c-69 6 -96 30 -62 56 28 20 294 20 322 0
15 -12 17 -18 8 -33 -8 -13 -28 -19 -70 -23 l-59 -5 0 -450 0 -450 45 -3 c71
-4 90 -10 90 -32 0 -33 -33 -40 -177 -40 -106 0 -144 3 -159 14 -33 25 -7 50
57 54 29 2 56 7 59 12 3 4 5 100 4 212 l0 203 -247 3 -247 2 0 -215 0 -215 60
0 c48 0 61 -4 70 -19 7 -15 6 -23 -6 -35 -13 -13 -43 -16 -173 -16 -167 0
-187 5 -179 47 3 15 15 18 76 21 l72 3 0 454 0 455 -54 0 c-67 0 -86 7 -86 31
0 32 31 38 182 39 120 0 149 -3 162 -16z m1379 -6 c15 -15 67 -147 147 -373
68 -192 142 -402 165 -465 l42 -115 54 -5 c43 -4 55 -9 58 -24 7 -40 -23 -46
-208 -46 -97 0 -182 4 -189 9 -8 4 -12 19 -10 32 3 23 6 24 105 27 l102 3 -48
137 -49 137 -222 0 -222 0 -49 -135 c-27 -74 -49 -136 -49 -137 0 -2 37 -3 83
-3 100 0 128 -17 91 -54 -13 -13 -44 -16 -188 -16 -183 0 -202 5 -194 47 3 14
15 19 60 21 32 2 58 8 61 15 101 260 337 879 337 886 0 6 -46 11 -112 13 -111
3 -113 4 -116 27 -2 13 2 28 10 32 7 5 82 9 166 9 145 0 154 -1 175 -22z
m1566 13 c11 -7 14 -44 14 -166 0 -141 -1 -159 -18 -171 -12 -9 -23 -10 -36
-3 -15 8 -19 22 -20 69 -1 33 -3 65 -4 70 -1 6 -3 39 -4 75 l-1 65 -160 0
-160 0 0 -455 0 -454 121 -3 c105 -3 123 -6 133 -21 9 -15 7 -21 -8 -33 -31
-22 -558 -21 -580 2 -40 39 -9 53 130 56 l119 3 0 450 0 450 -156 3 -157 2 -4
-25 c-3 -14 -6 -67 -7 -118 -3 -118 -7 -137 -35 -137 -12 0 -27 5 -34 12 -17
17 -17 309 0 326 14 14 844 17 867 3z m-6304 -338 c28 -9 62 -24 78 -35 l27
-19 0 25 c0 24 23 56 39 56 25 0 32 -33 29 -135 -3 -89 -6 -110 -20 -119 -23
-14 -35 -1 -43 44 -9 54 -32 80 -93 108 -50 23 -70 26 -162 27 -113 0 -153
-13 -184 -57 -21 -30 -20 -88 2 -114 27 -34 52 -43 209 -74 175 -35 221 -51
256 -88 38 -40 55 -125 38 -183 -28 -94 -123 -143 -276 -143 -106 0 -182 20
-243 64 -23 16 -43 30 -44 30 -2 0 -4 -16 -4 -36 -2 -44 -18 -63 -42 -48 -14
9 -17 30 -20 125 -2 82 1 119 10 132 22 29 45 11 53 -39 9 -59 62 -115 136
-140 80 -28 229 -26 286 4 51 26 66 53 66 109 0 43 -18 74 -55 94 -10 5 -89
23 -175 40 -87 17 -176 38 -198 48 -82 36 -119 114 -96 201 15 55 43 87 100
112 88 40 223 45 326 11z m2293 -1880 l3 -153 -1231 0 -1230 0 0 153 0 152
1228 0 1227 0 3 -152z m-1049 -1033 c201 -36 426 -163 554 -313 104 -122 189
-290 223 -442 25 -107 25 -331 1 -427 -72 -289 -264 -531 -524 -662 l-53 -26
-15 36 c-8 20 -15 40 -15 43 0 4 28 22 63 41 321 172 509 524 467 875 -26 218
-118 405 -271 551 -107 101 -206 159 -359 210 -78 25 -97 28 -245 28 -137 1
-171 -2 -238 -22 -159 -46 -298 -132 -418 -260 -120 -128 -194 -275 -224 -447
-19 -108 -19 -176 -1 -285 30 -185 104 -334 233 -470 81 -86 187 -166 258
-196 38 -16 38 -17 14 -82 l-9 -22 -62 31 c-254 128 -431 349 -510 637 -29
105 -31 364 -5 462 113 414 438 703 852 753 52 7 219 -1 284 -13z m-44 -395
c303 -77 495 -369 441 -670 -30 -170 -128 -313 -276 -404 -19 -11 -40 -21 -46
-21 -10 0 -40 79 -32 84 133 81 215 180 252 306 32 106 17 260 -34 360 -32 63
-101 140 -162 181 -153 104 -338 116 -508 31 -106 -53 -218 -192 -250 -310
-16 -62 -13 -197 6 -262 33 -112 128 -237 218 -285 20 -11 36 -23 36 -28 0
-17 -29 -77 -38 -77 -23 0 -133 83 -180 136 -210 235 -195 599 35 814 67 63
179 125 265 146 73 17 202 17 273 -1z m-49 -400 c81 -41 118 -122 100 -220 -8
-42 -63 -107 -106 -125 l-30 -12 0 -399 0 -399 -50 0 -50 0 0 399 0 399 -29
11 c-36 16 -87 68 -100 104 -18 48 -13 125 11 168 51 91 158 122 254 74z"/>
<path d="M3286 5424 c-129 -41 -214 -144 -257 -311 -59 -232 34 -485 209 -570
49 -24 69 -27 147 -28 82 0 96 3 157 33 140 69 220 221 221 417 1 270 -141
458 -356 471 -48 3 -88 -1 -121 -12z"/>
<path d="M11820 5385 c-6 -16 -49 -131 -95 -255 -46 -124 -86 -233 -90 -242
-7 -17 6 -18 184 -18 105 0 191 3 191 8 0 4 -40 126 -89 272 -84 252 -89 263
-101 235z"/>
<path d="M8163 1365 c-66 -28 -83 -102 -35 -155 44 -48 111 -45 152 7 60 76
-27 185 -117 148z"/>
</g>
</svg>
