<?xml version="1.0" standalone="no"?>
<!DOCTYPE svg PUBLIC "-//W3C//DTD SVG 20010904//EN"
 "http://www.w3.org/TR/2001/REC-SVG-20010904/DTD/svg10.dtd">
<svg version="1.0" xmlns="http://www.w3.org/2000/svg"
 width="1200.000000pt" height="1200.000000pt" viewBox="0 0 1200.000000 1200.000000"
 preserveAspectRatio="xMidYMid meet">

<g transform="translate(0.000000,1200.000000) scale(0.100000,-0.100000)"
fill="#000000" stroke="none">
<path d="M1750 5995 l0 -2985 4255 0 4255 0 0 2985 0 2985 -4255 0 -4255 0 0
-2985z m8340 5 l0 -2820 -4090 0 -4090 0 0 2820 0 2820 4090 0 4090 0 0 -2820z"/>
<path d="M7116 7935 c-21 -7 -42 -17 -47 -22 -7 -7 11 -205 44 -468 11 -90 15
-100 34 -103 24 -4 23 -6 52 128 11 52 32 147 46 211 31 142 33 229 7 252 -23
21 -82 21 -136 2z"/>
<path d="M3627 7828 c-175 -13 -311 -72 -422 -183 -186 -185 -260 -529 -184
-855 56 -240 201 -394 434 -462 69 -20 102 -23 245 -23 143 0 176 4 245 24
154 45 259 119 339 239 134 203 167 570 75 847 -101 304 -347 443 -732 413z
m208 -71 c47 -26 88 -89 111 -172 14 -50 18 -124 21 -437 6 -496 -9 -628 -83
-726 -74 -97 -277 -98 -358 -1 -32 37 -63 121 -78 212 -18 103 -18 762 0 879
18 114 58 198 110 233 74 49 199 54 277 12z"/>
<path d="M8358 7829 c-255 -27 -427 -213 -428 -462 0 -244 115 -384 390 -472
229 -73 269 -88 324 -118 35 -20 71 -50 90 -76 29 -40 31 -49 31 -125 0 -73
-3 -87 -27 -123 -19 -28 -45 -50 -85 -70 -51 -24 -69 -28 -149 -28 -84 0 -95
3 -165 37 -123 61 -244 186 -339 348 -37 63 -61 83 -73 63 -4 -7 7 -340 16
-458 3 -47 28 -59 45 -21 18 39 51 41 200 11 173 -35 339 -43 435 -21 191 45
326 180 367 367 19 84 9 250 -19 321 -48 124 -167 214 -361 274 -63 20 -158
49 -210 66 -145 45 -203 85 -235 160 -41 100 13 219 120 263 54 23 136 27 198
10 120 -31 209 -108 318 -274 38 -58 69 -109 69 -114 0 -4 10 -7 23 -5 12 2
21 5 21 8 -1 3 -5 96 -9 208 -4 111 -12 205 -17 208 -5 3 -20 -3 -32 -15 -28
-26 -56 -26 -137 -2 -118 36 -252 51 -361 40z"/>
<path d="M5585 7816 c-343 -79 -535 -353 -535 -762 0 -351 129 -588 375 -691
108 -46 173 -57 330 -58 142 0 158 2 299 38 158 41 199 42 231 7 10 -11 26
-20 36 -20 18 0 19 17 21 298 l3 297 43 3 c38 3 43 6 40 25 l-3 22 -305 0
-305 0 -3 -22 c-3 -22 0 -23 67 -23 l71 0 -1 -237 c0 -157 -4 -250 -12 -273
-17 -49 -61 -71 -140 -72 -217 -1 -317 230 -317 734 0 437 81 655 261 698 166
40 320 -78 470 -360 25 -46 41 -66 57 -68 l23 -3 -6 138 c-8 207 -16 323 -22
323 -3 0 -16 -9 -30 -20 -33 -26 -48 -25 -163 6 -80 22 -121 27 -260 30 -117
3 -182 0 -225 -10z"/>
<path d="M3703 5968 c-9 -13 -46 -109 -188 -493 -36 -99 -71 -190 -76 -203 -9
-22 -154 -414 -305 -822 -97 -261 -84 -240 -149 -240 -52 0 -55 -1 -55 -25 l0
-25 195 0 195 0 0 25 c0 25 -1 25 -88 25 -49 0 -91 2 -94 5 -3 4 7 42 23 86
16 44 35 99 43 122 26 76 104 291 115 320 l11 27 251 -2 252 -3 92 -272 c51
-150 90 -275 87 -278 -3 -3 -43 -5 -89 -5 -82 0 -84 -1 -81 -22 l3 -23 418 -3
417 -2 0 24 c0 23 -4 25 -57 28 l-58 3 -31 85 c-33 92 -76 210 -209 570 -48
129 -102 276 -119 325 -164 449 -280 762 -289 773 -6 8 -41 12 -107 12 -66 0
-101 -4 -107 -12z m-1 -813 c53 -159 97 -300 98 -312 l0 -23 -221 0 -221 0 5
28 c3 15 35 109 70 207 36 99 85 235 109 302 33 95 45 118 53 105 5 -9 53
-147 107 -307z"/>
<path d="M5297 5946 c-10 -26 17 -36 95 -36 l78 0 -2 -847 -3 -848 -80 -3
c-78 -3 -98 -12 -88 -39 4 -11 95 -13 499 -13 l494 0 0 25 0 25 -160 0 -160 0
0 350 0 350 93 0 c269 1 505 67 625 175 108 97 159 273 135 457 -33 243 -186
366 -504 408 -41 5 -286 10 -545 10 -392 0 -473 -2 -477 -14z m844 -48 c56
-19 86 -46 114 -102 22 -46 28 -76 37 -195 13 -181 -2 -402 -32 -483 -38 -102
-123 -158 -242 -158 l-48 0 0 475 0 475 69 0 c37 0 83 -5 102 -12z"/>
<path d="M7492 5938 c3 -21 9 -23 86 -26 l82 -3 0 -849 0 -850 -86 0 c-83 0
-85 -1 -82 -22 l3 -23 498 -3 497 -2 0 25 0 25 -162 2 -163 3 0 345 0 345 135
7 c433 21 640 133 706 383 18 64 18 255 0 320 -39 147 -138 242 -311 299 -120
39 -231 46 -728 46 l-478 0 3 -22z m841 -39 c55 -15 103 -62 129 -127 20 -52
22 -78 26 -275 2 -138 -1 -244 -8 -285 -29 -171 -103 -245 -245 -246 l-70 -1
-3 473 -2 472 67 0 c38 0 85 -5 106 -11z"/>
</g>
</svg>
