<?xml version="1.0" standalone="no"?>
<!DOCTYPE svg PUBLIC "-//W3C//DTD SVG 20010904//EN"
 "http://www.w3.org/TR/2001/REC-SVG-20010904/DTD/svg10.dtd">
<svg version="1.0" xmlns="http://www.w3.org/2000/svg"
 width="1200.000000pt" height="1200.000000pt" viewBox="0 0 1200.000000 1200.000000"
 preserveAspectRatio="xMidYMid meet">

<g transform="translate(0.000000,1200.000000) scale(0.100000,-0.100000)"
fill="#000000" stroke="none">
<path d="M1750 5995 l0 -2985 4255 0 4255 0 0 2985 0 2985 -4255 0 -4255 0 0
-2985z m8340 5 l0 -2820 -4090 0 -4090 0 0 2820 0 2820 4090 0 4090 0 0 -2820z"/>
<path d="M7101 7930 c-41 -19 -43 -22 -37 -53 3 -17 15 -120 26 -227 34 -313
32 -305 57 -308 26 -4 20 -20 77 245 50 233 57 320 28 346 -25 23 -96 21 -151
-3z"/>
<path d="M3627 7829 c-254 -21 -446 -146 -547 -358 -88 -184 -112 -455 -60
-678 48 -204 152 -342 315 -419 122 -58 180 -69 365 -69 143 0 176 4 245 24
263 76 415 268 456 576 14 107 6 331 -15 420 -87 369 -341 538 -759 504z m210
-75 c49 -28 84 -82 108 -169 15 -50 18 -122 22 -429 5 -385 -3 -541 -34 -632
-40 -120 -108 -174 -219 -174 -152 0 -221 67 -261 257 -25 118 -25 787 0 921
21 115 55 184 106 217 74 50 200 53 278 9z"/>
<path d="M8360 7830 c-306 -30 -485 -289 -414 -601 18 -81 72 -168 134 -218
60 -48 185 -102 346 -151 253 -76 334 -138 342 -264 5 -80 -9 -123 -55 -170
-53 -53 -130 -79 -224 -74 -169 7 -338 140 -484 381 -33 54 -52 77 -64 75 -18
-4 -18 8 -6 -305 6 -182 9 -203 24 -203 10 0 24 11 31 25 8 14 24 28 37 31 13
4 83 -6 156 -21 327 -68 534 -36 676 105 107 105 146 217 139 395 -6 148 -29
208 -112 291 -73 72 -142 110 -286 154 -245 75 -297 93 -335 115 -106 61 -142
167 -92 265 61 122 234 161 387 88 87 -42 208 -177 290 -326 18 -32 29 -42 45
-40 11 2 19 5 19 8 -1 3 -5 96 -9 208 -4 111 -12 205 -17 208 -5 3 -20 -3 -32
-15 -28 -26 -56 -26 -137 -2 -122 37 -248 52 -359 41z"/>
<path d="M5585 7816 c-201 -46 -360 -167 -444 -337 -64 -129 -82 -209 -88
-390 -5 -136 -2 -171 17 -260 57 -275 204 -432 470 -505 48 -13 103 -18 215
-18 142 -1 158 1 299 37 159 41 199 42 231 7 10 -11 26 -20 36 -20 18 0 19 17
21 298 l3 297 43 3 c38 3 43 6 40 25 l-3 22 -305 0 -305 0 -3 -22 c-3 -22 0
-23 67 -23 l71 0 -1 -237 c0 -157 -4 -250 -12 -273 -17 -49 -61 -71 -140 -72
-137 -1 -228 94 -278 290 -40 157 -48 590 -15 794 33 201 113 318 237 348 165
40 315 -73 464 -350 30 -56 46 -76 63 -78 l23 -4 -6 139 c-10 241 -17 323 -26
323 -5 0 -18 -9 -29 -20 -26 -26 -45 -25 -160 6 -80 23 -120 27 -260 30 -116
2 -183 -1 -225 -10z"/>
<path d="M3702 5968 c-8 -11 -276 -727 -568 -1518 -97 -261 -84 -240 -148
-240 -45 0 -55 -3 -59 -19 -3 -11 -2 -22 1 -25 3 -3 92 -6 199 -6 l193 0 0 25
c0 25 -1 25 -88 25 -49 0 -91 2 -94 5 -3 3 19 74 49 158 30 83 74 206 97 272
l42 120 253 0 254 0 88 -260 c48 -143 88 -268 88 -277 1 -16 -10 -18 -84 -18
-84 0 -85 0 -85 -25 l0 -25 420 0 420 0 0 25 c0 22 -4 24 -57 27 l-58 3 -31
85 c-16 47 -76 209 -131 360 -227 615 -279 757 -375 1020 -55 151 -105 281
-110 288 -7 8 -42 12 -108 12 -66 0 -101 -4 -108 -12z m3 -825 c54 -161 95
-299 91 -308 -8 -23 -436 -23 -436 0 0 8 31 102 69 208 38 105 89 247 113 314
38 109 44 119 54 100 7 -12 56 -154 109 -314z"/>
<path d="M5295 5950 c-16 -26 17 -40 96 -40 l79 0 -2 -847 -3 -848 -80 -3
c-78 -3 -98 -12 -88 -39 4 -11 95 -13 499 -13 l494 0 0 25 0 25 -160 0 -160 0
0 350 0 350 95 0 c52 0 145 7 207 15 351 49 517 182 550 442 23 182 -17 329
-116 429 -66 65 -146 105 -271 136 -85 20 -120 21 -611 25 -377 3 -524 1 -529
-7z m852 -53 c47 -18 92 -63 114 -114 47 -110 47 -539 -1 -664 -38 -103 -123
-159 -242 -159 l-48 0 0 475 0 475 73 -1 c39 0 86 -6 104 -12z"/>
<path d="M7492 5938 c3 -21 9 -23 86 -26 l82 -3 0 -849 0 -850 -86 0 c-83 0
-85 -1 -82 -22 l3 -23 498 -3 497 -2 0 25 0 25 -162 2 -163 3 0 345 0 345 135
7 c433 21 640 133 706 383 18 64 18 255 0 320 -50 187 -192 290 -459 329 -83
13 -202 16 -581 16 l-477 0 3 -22z m841 -39 c56 -15 103 -62 128 -127 21 -51
23 -79 27 -275 2 -139 0 -242 -8 -285 -29 -171 -103 -245 -245 -246 l-70 -1
-3 473 -2 472 67 0 c38 0 85 -5 106 -11z"/>
</g>
</svg>
